# xmcd
#
# Track frame offsets: 
#        150
#        29610
#        44615
#        63332
#        90370
#        115033
#        140171
#        151628
#        168867
#        204216
#        227794
#        239596
#        256723
#        284598
#        312456
#        340300
#
# Disc length: 4643 seconds
#
# Revision: 1
# Processed by: cddbd v1.5.2PL0 Copyright (c) Steve Scherf et al.
# Submitted via: ExactAudioCopyFreeDBPlugin 1.0
#
DISCID=de122110
DTITLE=Various Artist - Regi In The Mix 6 - P.M. Mix
DYEAR=2008
DGENRE=Dance
TTITLE0=Milk Inc - Race (Vandoren Og Vanhoyland Drom Remix)
TTITLE1=Dataworx - Control
TTITLE2=Sylver - Rise Again (AJ Duncan Remix)
TTITLE3=Dave Lambert and Housetrap - Work That Body (Dimitri Vegas and Lik
TTITLE3=e Mike Remix)
TTITLE4=Lange Ft. Sarah Howells - Out Of The Sky (Kyau and Albert Remix)
TTITLE5=Energy 52 - Café Del Mar 2008 (Deadmau5 Remix)
TTITLE6=Veracocha - Carte Blanche 2008
TTITLE7=Bart Claessen - Playmo (Dada Life Remix)
TTITLE8=Deadmau5 - Clockwork
TTITLE9=Manian ft. Aila - Turn The Tide (Dave Darell Remix)
TTITLE10=Sidekick - Deep Fear
TTITLE11=Wamdue Project - King Of My Castle 2008
TTITLE12=Delerium Ft. Sarah McLachlan - Silence (Niels Van Gogh vs Tho
TTITLE12=mas Gold Remix)
TTITLE13=Anna Grace - You Make Me Feel (John Luniz Remix)
TTITLE14=Armin Van Buuren Ft. Jaren - Unforgivable (First State Remix)
TTITLE15=Outro - Doors Closed
EXTD=
EXTT0=
EXTT1=
EXTT2=
EXTT3=
EXTT4=
EXTT5=
EXTT6=
EXTT7=
EXTT8=
EXTT9=
EXTT10=
EXTT11=
EXTT12=
EXTT13=
EXTT14=
EXTT15=
PLAYORDER=
